<svg width="184" height="28" viewBox="0 0 184 28" fill="none" xmlns="http://www.w3.org/2000/svg">
<g clip-path="url(#clip0_1_413)">
<path d="M0.0125526 18.4274L6.55279e-06 18.969C6.55279e-06 21.1732 -0.0125395 23.3775 6.55279e-06 25.5817C6.55279e-06 26.6775 0.77786 27.6096 1.86936 27.6474C3.37489 27.7104 4.88041 27.6726 6.39848 27.6726C7.48998 27.6726 8.45603 26.6775 8.41839 25.418C8.38075 24.0073 8.44348 22.5965 8.45603 21.1858C8.46857 19.2713 8.49366 17.3442 8.50621 15.4297C8.50621 15.077 8.55639 15.014 8.89514 14.9258C9.6479 14.7117 10.4383 14.6865 11.2162 14.8503C12.6339 15.1526 13.6626 16.2484 13.8132 17.6843C13.8885 18.4022 13.8885 19.1328 13.901 19.8507C13.9261 21.74 13.9386 23.642 13.9637 25.5313C13.9763 26.7909 14.8796 27.6978 16.1342 27.6978C17.4766 27.7104 18.8316 27.7104 20.174 27.7104C21.4412 27.7104 22.357 26.8161 22.357 25.5313C22.3696 21.6393 22.3696 17.7472 22.3696 13.8552V13.6789C22.3319 13.2758 22.1814 12.9231 21.8175 12.709C21.5666 12.5579 21.3032 12.4445 21.0146 12.3689C19.9231 12.1044 18.794 12.054 17.6899 12.2304C16.8368 12.3563 15.9962 12.5705 15.1431 12.7468C14.039 12.9861 12.8973 13.0491 11.7682 12.9483C10.3128 12.7972 9.04569 12.18 7.85382 11.3487C7.28925 10.9582 6.72468 10.5804 6.13501 10.2151C5.41989 9.77424 4.62949 9.63569 3.80145 9.58531C2.92323 9.53492 2.03246 9.50973 1.16679 9.71126C0.476755 9.875 0.125467 10.2781 0.0501906 10.9582C0.0376446 11.1094 0.0250986 11.2479 0.0250986 11.3991C0.0125526 13.7419 0.0125526 16.0846 0.0125526 18.4274ZM4.21547 8.48949C6.54903 8.50209 8.44348 6.60015 8.45603 4.25737C8.46857 1.91459 6.57412 0.0126578 4.24056 6.22019e-05C1.907 -0.0125334 0.0125526 1.8894 6.55279e-06 4.23218V4.24478C6.55279e-06 6.57496 1.88191 8.47689 4.21547 8.48949ZM22.2441 6.42381C22.2567 4.08103 20.3622 2.1791 18.0286 2.1665C15.6951 2.15391 13.8006 4.05584 13.7881 6.39862C13.7755 8.7414 15.67 10.6433 18.0036 10.6559C20.3497 10.6559 22.2316 8.76659 22.2441 6.42381ZM47.8004 27.6222H42.9701V19.2083H34.5518V27.6222H29.7341V7.07878H34.5643V14.9258H42.9827V7.07878H47.8004V27.6222ZM57.0719 15.0644C55.5789 15.0644 54.525 15.8327 54.3619 17.3064H50.0085C50.2092 14.4472 52.9693 11.8903 57.4608 11.8903C61.8143 11.8903 64.3235 13.6537 64.2356 18.3015L64.1855 21.6141C64.1604 23.6042 64.2356 26.3248 64.5242 27.6222H59.9575L59.8947 25.7832C58.7656 27.3955 56.959 27.9875 54.7885 27.9875C51.9029 27.9875 49.5317 26.2871 49.5317 23.5034C49.5317 19.7625 53.7346 18.5156 59.6438 18.0873V17.5079C59.6313 15.7194 58.7405 15.0644 57.0719 15.0644ZM56.4697 24.826C58.3265 24.826 59.7442 24.0324 59.7442 21.2236V20.8584C56.4948 21.1355 54.3243 21.5637 54.3243 23.1885C54.3243 24.171 55.2652 24.826 56.4697 24.826ZM76.4178 12.0414C80.3071 12.0414 81.5241 14.3338 81.5241 18.4778V27.6348H76.8695V19.6366C76.8695 17.4575 76.7817 15.669 74.5234 15.669C72.5411 15.669 71.7005 17.0041 71.7005 19.8129V27.6348H67.0334V12.3815H71.688V14.3968C72.378 13.2506 74.0466 12.0414 76.4178 12.0414ZM99.5527 27.6222H94.8981V25.5817C93.907 27.2569 91.9122 27.9875 90.2436 27.9875C86.3543 27.9875 83.5565 24.9897 83.5565 19.9893C83.5565 14.9888 86.3543 12.0289 90.2436 12.0289C91.9122 12.0289 93.9195 12.772 94.8981 14.4346V7.07878H99.5527V27.6222ZM91.7616 24.3725C93.5933 24.3725 95.124 23.1508 95.124 20.0145C95.124 16.8782 93.5933 15.6816 91.7616 15.6816C89.9048 15.6816 88.3742 17.1804 88.3742 20.0145C88.3742 22.8485 89.8923 24.3725 91.7616 24.3725ZM108.962 15.3793C107.381 15.3793 106.528 15.8075 106.528 16.5129C106.528 17.2182 107.068 17.6213 108.398 17.8732L111.221 18.377C114.896 19.0572 116.615 20.1404 116.615 22.8233C116.615 26.2493 113.479 27.9875 109.276 27.9875C105.261 27.9875 102.363 26.2241 101.824 22.6595H106.139C106.528 24.1332 107.72 24.5867 109.326 24.5867C110.97 24.5867 112.149 24.1332 112.149 23.2263C112.149 22.5462 111.522 22.1179 109.778 21.8156L107.068 21.3622C104.132 20.8835 102.125 19.3721 102.125 16.6892C102.125 13.6285 105.311 11.9785 109.075 11.9785C112.55 11.9785 115.687 13.3892 116.277 16.853H111.923C111.647 15.7194 110.43 15.3793 108.962 15.3793ZM133.314 18.4652V27.6222H128.659V19.624C128.659 17.445 128.609 15.6564 126.338 15.6564C124.356 15.6564 123.491 16.9915 123.491 19.8003V27.6222H118.836V7.07878H123.491V14.3968C124.168 13.2632 125.837 12.0414 128.208 12.0414C132.097 12.0414 133.314 14.3338 133.314 18.4652ZM142.899 15.0644C141.406 15.0644 140.365 15.8327 140.189 17.3064H135.836C136.037 14.4472 138.797 11.8903 143.288 11.8903C147.642 11.8903 150.151 13.6537 150.063 18.3015L150.013 21.6141C149.988 23.6042 150.063 26.3248 150.352 27.6222H145.785L145.735 25.7832C144.605 27.3955 142.799 27.9875 140.628 27.9875C137.743 27.9875 135.372 26.2871 135.372 23.5034C135.372 19.7625 139.575 18.5156 145.484 18.0873V17.5079C145.471 15.7194 144.568 15.0644 142.899 15.0644ZM142.31 24.826C144.179 24.826 145.584 24.0324 145.584 21.2236V20.8584C142.335 21.1355 140.164 21.5637 140.164 23.1885C140.164 24.171 141.093 24.826 142.31 24.826ZM157.553 18.1881L162.659 12.3815H168.167L162.747 18.2259L168.619 27.6348H163.174L159.585 21.6267L157.553 23.8057V27.6348H152.898V7.07878H157.553V18.1881Z" fill="black"/>
<path d="M176.359 28.0002C171.416 28.0002 168.029 24.9647 168.029 19.9264C168.029 15.0519 171.73 11.9282 176.159 11.9282C181.19 11.9282 184.289 15.7825 183.975 21.1986H172.709C172.847 23.3524 174.515 24.3727 176.209 24.3727C177.965 24.3727 179.095 23.7429 179.621 22.836H183.912C182.57 26.4383 179.408 28.0002 176.359 28.0002ZM179.345 18.3646C179.295 16.4626 177.903 15.5054 176.159 15.5054C174.528 15.5054 173.022 16.3619 172.771 18.3646H179.345Z" fill="black"/>
</g>
<defs>
<clipPath id="clip0_1_413">
<rect width="184" height="28" fill="white"/>
</clipPath>
</defs>
</svg>
